<svg height="512pt" viewBox="0 0 512 512" width="512pt" xmlns="http://www.w3.org/2000/svg" xmlns:xlink="http://www.w3.org/1999/xlink"><linearGradient id="a" gradientUnits="userSpaceOnUse" x1="0" x2="512" y1="256" y2="256"><stop offset="0" stop-color="#00f38d"/><stop offset="1" stop-color="#009eff"/></linearGradient><path d="m512 256c0 141.386719-114.613281 256-256 256s-256-114.613281-256-256 114.613281-256 256-256 256 114.613281 256 256zm0 0" fill="url(#a)"/><g fill="#fff"><path d="m189.0625 200.292969c0-18.707031 15.21875-33.929688 33.929688-33.929688v-26.613281c-33.382813 0-60.542969 27.160156-60.542969 60.542969zm0 0"/><path d="m280.503906 278.175781c-12.3125 16.207031-24.96875 32.855469-29.277344 56.515625h-55.136718c-4.3125-23.660156-16.964844-40.308594-29.277344-56.515625-15.871094-20.882812-30.863281-40.613281-30.976562-77.554687.179687-48.273438 39.507812-87.484375 87.820312-87.484375 4.117188 0 8.164062.289062 12.132812.839843 4.632813-8.691406 10.488282-16.632812 17.339844-23.597656-9.40625-2.511718-19.285156-3.855468-29.472656-3.855468-62.84375 0-114.019531 50.921874-114.433594 113.675781v.757812c.210938 45.699219 19.429688 70.992188 36.398438 93.320313 14.191406 18.675781 25.402344 33.425781 25.402344 57.984375v34.988281c0 22.011719 17.90625 39.921875 39.917968 39.921875h25.433594c22.011719 0 39.917969-17.910156 39.917969-39.921875v-34.988281c0-24.558594 11.210937-39.308594 25.402343-57.984375 7.089844-9.332032 14.570313-19.1875 20.898438-30.828125-9.753906-.292969-19.167969-1.964844-28.054688-4.828125-4.320312 6.769531-9.136718 13.109375-14.035156 19.554687zm-44.132812 122.382813h-25.429688c-7.335937 0-13.304687-5.96875-13.304687-13.308594v-25.945312h52.042969v25.945312c0 7.339844-5.96875 13.308594-13.308594 13.308594zm0 0"/><path d="m402.777344 176.703125v-30h-24.277344c-1.175781-4.128906-2.816406-8.0625-4.871094-11.734375l17.175782-17.175781-21.214844-21.214844-17.175782 17.179687c-3.542968-1.984374-7.328124-3.582031-11.296874-4.75v-24.179687h-30v23.929687c-4.289063 1.183594-8.371094 2.871094-12.175782 5l-17.175781-17.179687-21.214844 21.214844 17.175781 17.175781c-2.054687 3.671875-3.695312 7.605469-4.871093 11.734375h-24.28125v30h24.28125c1.175781 4.128906 2.816406 8.0625 4.871093 11.734375l-17.175781 17.179688 21.214844 21.210937 17.175781-17.175781c3.605469 2.019531 7.460938 3.636718 11.507813 4.808594v24.117187h30v-23.992187c4.210937-1.175782 8.222656-2.839844 11.960937-4.933594l17.175782 17.175781 21.214843-21.214844-17.179687-17.175781c2.058594-3.671875 3.699218-7.605469 4.875-11.734375zm-91.347656-35.425781c4.042968-2.828125 8.953124-4.492188 14.25-4.492188 13.738281 0 24.917968 11.179688 24.917968 24.917969 0 13.742187-11.179687 24.921875-24.917968 24.921875-13.742188 0-24.921876-11.179688-24.921876-24.921875 0-5.292969 1.664063-10.207031 4.492188-14.246094zm0 0"/></g></svg>